{"title":"Homefront.2013.CAM.x264.AC3-MiLLENiUM","uid":9351729,"size":849896167,"categoryP":"video","categoryS":"movies","magnet":"?xt=urn:btih:4f94129fa22e5be301e254ba7a198223a429e300&amp;dn=Homefront.2013.CAM.x264.AC3-MiLLENiUM&amp;tr=udp%3A%2F%2Ftracker.openbittorrent.com%3A80&amp;tr=udp%3A%2F%2Fopen.demonii.com%3A1337&amp;tr=udp%3A%2F%2Ftracker.coppersurfer.tk%3A6969&amp;tr=udp%3A%2F%2Fexodus.desync.com%3A6969","seeders":0,"leechers":1,"uploader":"Acesn8s","files":-1,"time":1387137916,"description":"Homefront 2013 CAM x264 AC3-MiLLENiUM                  \n\nGeneral\n\nSource...............: VOBS [THANKS]\n\nSample Included......: yes\n\nGeneral\nComplete name                            : Homefront 2013 CAM x264 AC3-MiLLENiUM.mkv\nFormat                                   : Matroska\nFormat version                           : Version 2\nFile size                                : 800 MiB\nDuration                                 : 1h 34mn\nOverall bit rate mode                    : Variable\nOverall bit rate                         : 1 185 Kbps\nEncoded date                             : UTC 2013-12-14 09:44:56\nWriting application                      : mkvmerge v6.5.0 ('Isn't she lovely') built on Oct 20 2013 12:50:05\nWriting library                          : libebml v1.3.0 + libmatroska v1.4.1\n\nVideo\nID                                       : 1\nFormat                                   : AVC\nFormat/Info                              : Advanced Video Codec\nFormat profile                           : &lt;a class=&quot;__cf_email__&quot; href=&quot;/cdn-cgi/l/email-protection&quot; data-cfemail=&quot;b8f0d1dfd0f8f48c9689&quot;&gt;[email&amp;#160;protected]&lt;/a&gt;&lt;script data-cfhash='f9e31' type=&quot;text/javascript&quot;&gt;\n/* &lt;![CDATA[ */!function(){try{var t=&quot;currentScript&quot;in document?document.currentScript:function(){for(var t=document.getElementsByTagName(&quot;script&quot;),e=t.length;e--;)if(t[e].getAttribute(&quot;data-cfhash&quot;))return t[e]}();if(t&amp;&amp;t.previousSibling){var e,r,n,i,c=t.previousSibling,a=c.getAttribute(&quot;data-cfemail&quot;);if(a){for(e=&quot;&quot;,r=parseInt(a.substr(0,2),16),n=2;a.length-n;n+=2)i=parseInt(a.substr(n,2),16)^r,e+=String.fromCharCode(i);e=document.createTextNode(e),c.parentNode.replaceChild(e,c)}t.parentNode.removeChild(t);}}catch(u){}}()/* ]]&gt; */&lt;/script&gt;\nFormat settings, CABAC                   : Yes\nFormat settings, ReFrames                : 3 frames\nCodec ID                                 : V_MPEG4/ISO/AVC\nDuration                                 : 1h 34mn\nBit rate mode                            : Variable\nBit rate                                 : 777 Kbps\nMaximum bit rate                         : 40.0 Mbps\nWidth                                    : 720 pixels\nHeight                                   : 364 pixels\nDisplay aspect ratio                     : 1.978\nFrame rate mode                          : Constant\nFrame rate                               : 23.976 fps\nColor space                              : YUV\nChroma subsampling                       : 4:2:0\nBit depth                                : 8 bits\nScan type                                : Progressive\nBits/(Pixel*Frame)                       : 0.124\nStream size                              : 525 MiB (66%)\nWriting library                          : x264 core 140 r2377 1ca7bb9\n\nAudio\nID                                       : 2\nFormat                                   : AC-3\nFormat/Info                              : Audio Coding 3\nMode extension                           : CM (complete main)\nFormat settings, Endianness              : Big\nCodec ID                                 : A_AC3\nDuration                                 : 1h 34mn\nBit rate mode                            : Constant\nBit rate                                 : 384 Kbps\nChannel(s)                               : 2 channels\nChannel positions                        : Front: L R\nSampling rate                            : 48.0 KHz\nBit depth                                : 16 bits\nCompression mode                         : Lossy\nStream size                              : 259 MiB (32%)\nLanguage                                 : English\nDefault                                  : Yes\nForced                                   : No\n\n &lt;a href=&quot;\nhttp://www.imdb.com/title/tt2312718/&quot; rel=&quot;nofollow&quot; target=&quot;_NEW&quot;&gt;\nhttp://www.imdb.com/title/tt2312718/&lt;/a&gt;\n\nPlot\n\nA former DEA agent moves his family to a quiet town, where he soon tangles with a local meth druglord.\n\nScreenshots\n &lt;a href=&quot;\nhttp://s27.postimg.org/qval9gaar/vlcsnap_2013_12_14_10h55m45s119.png&quot; rel=&quot;nofollow&quot; target=&quot;_NEW&quot;&gt;\nhttp://s27.postimg.org/qval9gaar/vlcsnap_2013_12_14_10h55m45s119.png&lt;/a&gt;\n &lt;a href=&quot;\nhttp://s27.postimg.org/yy8rkruw3/vlcsnap_2013_12_14_10h55m59s32.png&quot; rel=&quot;nofollow&quot; target=&quot;_NEW&quot;&gt;\nhttp://s27.postimg.org/yy8rkruw3/vlcsnap_2013_12_14_10h55m59s32.png&lt;/a&gt;\n &lt;a href=&quot;\nhttp://s27.postimg.org/nn63weo0z/vlcsnap_2013_12_14_10h56m41s174.png&quot; rel=&quot;nofollow&quot; target=&quot;_NEW&quot;&gt;\nhttp://s27.postimg.org/nn63weo0z/vlcsnap_2013_12_14_10h56m41s174.png&lt;/a&gt;\n &lt;a href=&quot;\nhttp://s27.postimg.org/nppzj8roj/vlcsnap_2013_12_14_10h56m54s31.png&quot; rel=&quot;nofollow&quot; target=&quot;_NEW&quot;&gt;\nhttp://s27.postimg.org/nppzj8roj/vlcsnap_2013_12_14_10h56m54s31.png&lt;/a&gt;\n &lt;a href=&quot;\nhttp://s27.postimg.org/uk4vmo9pf/vlcsnap_2013_12_14_10h58m37s49.png&quot; rel=&quot;nofollow&quot; target=&quot;_NEW&quot;&gt;\nhttp://s27.postimg.org/uk4vmo9pf/vlcsnap_2013_12_14_10h58m37s49.png&lt;/a&gt;","torrent":{"xt":"urn:btih:4f94129fa22e5be301e254ba7a198223a429e300","amp;dn":"Homefront.2013.CAM.x264.AC3-MiLLENiUM","amp;tr":["udp%3A%2F%2Ftracker.openbittorrent.com%3A80","udp%3A%2F%2Fopen.demonii.com%3A1337","udp%3A%2F%2Ftracker.coppersurfer.tk%3A6969","udp%3A%2F%2Fexodus.desync.com%3A6969"],"infoHash":"4f94129fa22e5be301e254ba7a198223a429e300","infoHashBuffer":{"type":"Buffer","data":[79,148,18,159,162,46,91,227,1,226,84,186,122,25,130,35,164,41,227,0]},"announce":[],"urlList":[]}}